<?xml version="1.0" standalone="no"?>
<!DOCTYPE svg PUBLIC "-//W3C//DTD SVG 20010904//EN"
 "http://www.w3.org/TR/2001/REC-SVG-20010904/DTD/svg10.dtd">
<svg version="1.0" xmlns="http://www.w3.org/2000/svg"
 width="452.000000pt" height="426.000000pt" viewBox="0 0 452.000000 426.000000"
 preserveAspectRatio="xMidYMid meet">

<g transform="translate(0.000000,426.000000) scale(0.100000,-0.100000)"
fill="#000000" stroke="none">
<path d="M0 2130 l0 -2130 2260 0 2260 0 0 2130 0 2130 -2260 0 -2260 0 0
-2130z m1944 909 l379 -501 31 36 c17 20 213 245 436 501 l405 464 263 0 c208
1 262 -2 256 -11 -5 -7 -260 -301 -569 -653 -308 -352 -564 -645 -568 -652 -5
-8 81 -129 226 -320 128 -169 430 -569 671 -888 241 -319 443 -586 449 -592 7
-10 -99 -13 -524 -13 l-534 0 -415 545 c-228 299 -418 544 -421 544 -4 1 -221
-244 -483 -544 l-477 -545 -264 0 -264 0 601 687 c330 379 609 698 620 709
l19 21 -655 857 -655 856 547 0 547 0 379 -501z"/>
<path d="M1122 3195 c18 -24 449 -589 958 -1254 l925 -1210 149 -1 c117 0 146
3 139 12 -5 7 -432 572 -948 1256 l-939 1242 -159 0 -159 0 34 -45z"/>
</g>
</svg>
